<?xml version="1.0" encoding="UTF-8"?>
<svg id="Layer_2" data-name="Layer 2" xmlns="http://www.w3.org/2000/svg" xmlns:xlink="http://www.w3.org/1999/xlink" viewBox="0 0 1131.55 225.99">
  <defs>
    <style>
      .cls-1 {
        fill: url(#linear-gradient-2);
      }

      .cls-2 {
        fill: #fff;
      }

      .cls-3 {
        fill: url(#linear-gradient-4);
      }

      .cls-4 {
        fill: url(#linear-gradient-3);
      }

      .cls-5 {
        fill: url(#linear-gradient);
      }
    </style>
    <linearGradient id="linear-gradient" x1="45.39" y1="90.5" x2="180.95" y2="90.5" gradientUnits="userSpaceOnUse">
      <stop offset=".23" stop-color="#faa71a"/>
      <stop offset=".6" stop-color="#f9a81a"/>
      <stop offset=".74" stop-color="#f9af1a"/>
      <stop offset=".83" stop-color="#f9bb1c"/>
      <stop offset=".91" stop-color="#f9cc1d"/>
      <stop offset=".97" stop-color="#f9e21f"/>
      <stop offset="1" stop-color="#f9ed21"/>
    </linearGradient>
    <linearGradient id="linear-gradient-2" x1="45.01" y1="180.87" x2="135.37" y2="180.87" xlink:href="#linear-gradient"/>
    <linearGradient id="linear-gradient-3" x1="0" y1="113.15" x2="44.9" y2="113.15" xlink:href="#linear-gradient"/>
    <linearGradient id="linear-gradient-4" x1="181.1" y1="112.85" x2="226" y2="112.85" xlink:href="#linear-gradient"/>
  </defs>
  <g id="Layer_1-2" data-name="Layer 1">
    <g>
      <g>
        <path class="cls-2" d="M320.88,167.6l-19.42-35.23h-5.45v35.23h-22.74v-93.34h38.16c7.35,0,13.62,1.29,18.82,3.86,5.18,2.57,9.05,6.1,11.63,10.57,2.56,4.48,3.84,9.46,3.84,14.96,0,6.2-1.75,11.75-5.24,16.62-3.51,4.88-8.67,8.33-15.5,10.37l21.55,36.96h-25.66ZM296.01,116.28h14.1c4.16,0,7.28-1.02,9.37-3.06,2.07-2.04,3.12-4.92,3.12-8.64s-1.05-6.34-3.12-8.38c-2.09-2.04-5.21-3.06-9.37-3.06h-14.1v23.14Z"/>
        <path class="cls-2" d="M355.24,110.29c2.88-5.76,6.8-10.19,11.77-13.29s10.5-4.65,16.62-4.65c5.23,0,9.81,1.06,13.76,3.19s6.98,4.92,9.1,8.38v-10.5h22.75v74.2h-22.75v-10.5c-2.21,3.46-5.29,6.25-9.24,8.38-3.95,2.13-8.53,3.19-13.76,3.19-6.04,0-11.52-1.57-16.49-4.72-4.97-3.15-8.89-7.63-11.77-13.43-2.88-5.81-4.32-12.52-4.32-20.14s1.43-14.31,4.32-20.08ZM401.78,117.07c-3.14-3.28-6.98-4.92-11.5-4.92s-8.35,1.62-11.5,4.85c-3.15,3.24-4.72,7.69-4.72,13.37s1.57,10.17,4.72,13.49c3.14,3.33,6.98,4.99,11.5,4.99s8.35-1.64,11.5-4.92c3.15-3.28,4.72-7.76,4.72-13.43s-1.57-10.15-4.72-13.43Z"/>
        <path class="cls-2" d="M478.44,112.29h-12.23v55.31h-22.74v-55.31h-8.24v-18.88h8.24v-2.13c0-9.13,2.61-16.06,7.85-20.81,5.23-4.74,12.9-7.12,23-7.12,1.69,0,2.93.05,3.73.13v19.28c-4.35-.27-7.4.35-9.17,1.86-1.78,1.51-2.66,4.21-2.66,8.11v.67h12.23v18.88Z"/>
        <path class="cls-2" d="M486.22,82.17c-2.53-2.35-3.79-5.25-3.79-8.71s1.26-6.5,3.79-8.84c2.52-2.35,5.78-3.52,9.77-3.52s7.11,1.18,9.64,3.52,3.79,5.3,3.79,8.84-1.26,6.36-3.79,8.71-5.73,3.52-9.64,3.52-7.25-1.18-9.77-3.52ZM507.29,93.4v74.2h-22.75v-74.2h22.75Z"/>
        <path class="cls-2" d="M585.27,101.05c5.18,5.63,7.77,13.36,7.77,23.2v43.35h-22.6v-40.29c0-4.96-1.29-8.82-3.85-11.57-2.58-2.75-6.04-4.12-10.37-4.12s-7.81,1.37-10.37,4.12c-2.58,2.75-3.86,6.61-3.86,11.57v40.29h-22.74v-74.2h22.74v9.84c2.3-3.28,5.4-5.87,9.31-7.78,3.89-1.91,8.29-2.86,13.17-2.86,8.68,0,15.61,2.82,20.81,8.44Z"/>
        <path class="cls-2" d="M618.18,165.34c-4.52-2.13-8.04-5.01-10.56-8.65-2.53-3.63-3.98-7.66-4.33-12.1h6.26c.71,4.88,2.99,9.22,6.85,13.03,3.86,3.81,9.73,5.72,17.62,5.72,4.6,0,8.62-.84,12.04-2.53,3.41-1.68,6.04-3.99,7.91-6.91,1.85-2.93,2.79-6.16,2.79-9.71,0-4.52-1.09-8.11-3.26-10.77-2.17-2.66-4.87-4.65-8.11-5.98-3.24-1.33-7.6-2.75-13.09-4.26-6.03-1.59-10.88-3.19-14.56-4.78-3.68-1.6-6.78-4.06-9.31-7.38-2.53-3.33-3.79-7.87-3.79-13.63,0-4.43,1.18-8.49,3.52-12.17,2.35-3.68,5.7-6.58,10.04-8.71s9.35-3.19,15.03-3.19c8.24,0,14.89,2.04,19.95,6.12,5.04,4.08,8.06,9.09,9.04,15.03h-6.39c-.52-2.39-1.7-4.83-3.52-7.31-1.82-2.48-4.39-4.54-7.71-6.18s-7.29-2.46-11.9-2.46c-6.2,0-11.43,1.71-15.69,5.12-4.26,3.41-6.38,7.95-6.38,13.63,0,4.52,1.11,8.14,3.32,10.84,2.22,2.71,4.94,4.74,8.18,6.12s7.6,2.77,13.1,4.19c6.12,1.68,10.97,3.3,14.56,4.85s6.65,3.99,9.18,7.31c2.52,3.32,3.79,7.82,3.79,13.5,0,4.16-1.1,8.11-3.33,11.83-2.21,3.72-5.47,6.76-9.76,9.11-4.31,2.35-9.51,3.52-15.63,3.52s-11.3-1.07-15.82-3.19Z"/>
        <path class="cls-2" d="M689.71,164.14c-5.4-3.01-9.64-7.33-12.7-12.97-3.05-5.63-4.59-12.21-4.59-19.74s1.55-13.98,4.65-19.61c3.1-5.63,7.39-9.93,12.83-12.9,5.45-2.97,11.55-4.45,18.29-4.45s12.81,1.48,18.22,4.45c5.4,2.97,9.64,7.25,12.7,12.83,3.05,5.59,4.59,12.15,4.59,19.68s-1.55,14.12-4.65,19.74c-3.1,5.63-7.39,9.95-12.83,12.97-5.45,3.01-11.55,4.52-18.28,4.52s-12.81-1.5-18.23-4.52ZM722.62,159.82c4.57-2.35,8.23-5.92,10.98-10.71,2.74-4.78,4.11-10.68,4.11-17.68s-1.37-12.76-4.11-17.55c-2.75-4.79-6.39-8.35-10.91-10.7s-9.39-3.52-14.63-3.52-10.08,1.18-14.56,3.52c-4.48,2.35-8.09,5.91-10.84,10.7s-4.11,10.64-4.11,17.55,1.35,12.9,4.06,17.68c2.71,4.79,6.29,8.36,10.77,10.71s9.33,3.52,14.57,3.52,10.12-1.18,14.69-3.52Z"/>
        <path class="cls-2" d="M763.38,69.2v98.4h-5.99v-98.4h5.99Z"/>
        <path class="cls-2" d="M841.83,95.4v72.2h-5.99v-15.69c-2.04,5.5-5.43,9.69-10.17,12.57-4.75,2.88-10.18,4.32-16.29,4.32-8.6,0-15.63-2.64-21.08-7.91-5.45-5.27-8.18-13.1-8.18-23.47v-42.02h5.85v41.62c0,8.6,2.17,15.18,6.51,19.74,4.35,4.57,10.23,6.85,17.69,6.85s14.03-2.48,18.68-7.45c4.65-4.96,6.98-12.32,6.98-22.07v-38.7h5.99Z"/>
        <path class="cls-2" d="M868.01,100.59v47.73c0,5.32.98,8.97,2.93,10.97,1.94,2,5.4,2.99,10.37,2.99h8.11v5.32h-9.04c-6.31,0-10.93-1.48-13.9-4.46-2.97-2.97-4.45-7.91-4.45-14.82v-47.73h-10.9v-5.19h10.9v-18.35h5.98v18.35h21.41v5.19h-21.41Z"/>
        <path class="cls-2" d="M900.19,77.91c-.97-.93-1.46-2.19-1.46-3.79,0-1.5.49-2.74,1.46-3.72.98-.97,2.18-1.46,3.59-1.46s2.61.49,3.59,1.46c.97.98,1.46,2.22,1.46,3.72,0,1.6-.49,2.86-1.46,3.79-.98.93-2.18,1.4-3.59,1.4s-2.61-.46-3.59-1.4ZM906.71,95.4v72.2h-5.99v-72.2h5.99Z"/>
        <path class="cls-2" d="M937.68,164.14c-5.4-3.01-9.64-7.33-12.7-12.97-3.05-5.63-4.59-12.21-4.59-19.74s1.55-13.98,4.65-19.61c3.1-5.63,7.39-9.93,12.83-12.9,5.45-2.97,11.55-4.45,18.29-4.45s12.81,1.48,18.22,4.45c5.4,2.97,9.64,7.25,12.7,12.83,3.05,5.59,4.59,12.15,4.59,19.68s-1.55,14.12-4.65,19.74c-3.1,5.63-7.39,9.95-12.83,12.97-5.45,3.01-11.55,4.52-18.28,4.52s-12.81-1.5-18.23-4.52ZM970.6,159.82c4.57-2.35,8.23-5.92,10.98-10.71,2.74-4.78,4.11-10.68,4.11-17.68s-1.37-12.76-4.11-17.55c-2.75-4.79-6.39-8.35-10.91-10.7-4.52-2.35-9.39-3.52-14.63-3.52s-10.08,1.18-14.56,3.52-8.09,5.91-10.84,10.7c-2.75,4.79-4.11,10.64-4.11,17.55s1.35,12.9,4.06,17.68c2.71,4.79,6.29,8.36,10.77,10.71s9.33,3.52,14.57,3.52,10.12-1.18,14.69-3.52Z"/>
        <path class="cls-2" d="M1058.96,101.85c5.4,5.28,8.11,13.1,8.11,23.47v42.28h-5.85v-41.88c0-8.6-2.17-15.18-6.52-19.75-4.34-4.57-10.23-6.85-17.69-6.85s-14.03,2.48-18.68,7.44c-4.65,4.97-6.98,12.32-6.98,22.07v38.96h-5.98v-72.2h5.98v15.29c2.04-5.41,5.43-9.55,10.18-12.43,4.75-2.88,10.22-4.32,16.42-4.32,8.6,0,15.6,2.64,21.01,7.91Z"/>
        <path class="cls-2" d="M1088.01,163.35c-5.1-3.54-7.96-8.6-8.57-15.16h6.11c.45,4.7,2.59,8.42,6.45,11.17,3.86,2.75,9.1,4.12,15.76,4.12,5.5,0,9.86-1.4,13.09-4.19,3.24-2.79,4.86-6.23,4.86-10.3,0-2.84-.86-5.16-2.59-6.98s-3.89-3.21-6.45-4.19c-2.58-.97-6.07-2.04-10.5-3.19-5.32-1.42-9.62-2.81-12.9-4.19-3.28-1.37-6.07-3.43-8.38-6.18-2.31-2.75-3.46-6.43-3.46-11.04,0-3.37,1.02-6.49,3.06-9.37,2.03-2.88,4.87-5.16,8.51-6.85,3.64-1.68,7.76-2.52,12.37-2.52,7.54,0,13.63,1.88,18.29,5.65,4.65,3.77,7.16,8.97,7.51,15.63h-5.98c-.27-4.79-2.13-8.69-5.59-11.7-3.46-3.01-8.24-4.52-14.36-4.52-5.14,0-9.4,1.33-12.76,3.99-3.37,2.66-5.06,5.89-5.06,9.7,0,3.37.95,6.1,2.86,8.18,1.91,2.09,4.26,3.68,7.05,4.79s6.49,2.28,11.1,3.52c5.06,1.33,9.1,2.64,12.17,3.92,3.06,1.29,5.66,3.15,7.78,5.59,2.12,2.44,3.19,5.7,3.19,9.78,0,3.72-1.01,7.09-3.05,10.1s-4.88,5.37-8.51,7.05-7.71,2.52-12.23,2.52c-8.07,0-14.64-1.77-19.74-5.32Z"/>
      </g>
      <g>
        <g>
          <path class="cls-5" d="M135.67,159.71c-.64-13.77-9.71-23.7-22.98-23.92-13.06-.22-22.54-10.75-22.5-22.7.05-13.29,10.65-22.54,24.52-22.93,12.75-.36,20.99-12.11,20.83-23.43-.17-11.93-10.05-21.12-21.7-21.42-12.77-.33-23,9.53-23.27,23-.25,12.98-11.04,22.34-22.85,22.16-12.15-.18-21.85-10.01-22.31-21.66-.52-13.23,9.56-23.42,23.41-23.78,12.94-.33,21.64-10.57,21.93-23.02C91.06,8.69,102.07-.45,114,.02c12.48.49,21.66,10.21,22.04,23.66.32,11.52,9.43,21.04,21.12,21.22,13.29.21,23.27,9.75,23.78,21.88.55,13.27-9.93,23.71-23.69,24.03-13.01.3-21.71,10.82-21.84,22.27-.13,11.57,8.99,22.3,21.67,22.5,13.35.21,22.85,9.53,23.39,21.77.54,12.16-8.24,22.2-20.48,23.54-11.46,1.25-23.66-7.18-24.31-21.18Z"/>
          <path class="cls-1" d="M90.62,160.2c.19,29.81,42.48,10.72,44.69,41.8.91,12.77-9.12,23.63-21.31,23.98-13.6.39-23.68-9.42-24.01-23.56-.27-11.42-9.6-21.15-21.1-21.17-13.32-.02-23.19-9.62-23.85-21.95-.68-12.63,9.85-23.57,22.63-23.55,13.02.02,22.87,10.57,22.95,24.45Z"/>
        </g>
        <circle class="cls-4" cx="22.45" cy="113.15" r="22.45"/>
        <path class="cls-3" d="M226,112.85c0,12.4-10.05,22.45-22.45,22.45-12.4,0-22.45-10.05-22.45-22.45s10.05-22.45,22.45-22.45,22.45,10.05,22.45,22.45Z"/>
      </g>
    </g>
  </g>
</svg>